<svg xmlns="http://www.w3.org/2000/svg" viewBox="0 0 640 300"><defs><linearGradient id="g" x1="0" x2="1" y1="0" y2="1"><stop stop-color="#8b5cf6"/><stop offset="1" stop-color="#4338ca"/></linearGradient></defs><rect width="640" height="300" rx="28" fill="url(#g)"/><circle cx="560" cy="54" r="112" fill="#fff" opacity=".07"/><g transform="translate(310 55)"><rect x="0" y="75" width="240" height="42" rx="10" fill="#fde68a" stroke="#f59e0b" stroke-width="5" transform="rotate(-8 120 96)"/><g stroke="#92400e" stroke-width="3"><path d="M25 78v18M50 74v13M75 70v18M100 67v13M125 63v18M150 60v13M175 57v18M200 53v13"/></g><path d="M38 180L118 38l82 142z" fill="none" stroke="#bfdbfe" stroke-width="14" stroke-linejoin="round"/><path d="M68 180h102L118 90z" fill="none" stroke="#fff" stroke-width="6" opacity=".8"/><path d="M203 181a74 74 0 0 1 74-74v74z" fill="#ddd6fe" stroke="#fff" stroke-width="5"/><path d="M220 170a56 56 0 0 1 47-47" fill="none" stroke="#7c3aed" stroke-width="5"/></g><g fill="#fff" font-family="Arial,sans-serif"><text x="44" y="72" font-size="32" font-weight="700">Géométrie pratique</text><text x="44" y="110" font-size="22" opacity=".92">règle • équerre • rapporteur</text><text x="52" y="208" font-size="40">∠ 60°</text><path d="M50 235h165" stroke="#fff" stroke-opacity=".55" stroke-width="8" stroke-linecap="round"/></g></svg>